# xmcd
#
# Track frame offsets:
#	150
#	19237
#	35071
#	54339
#	78173
#	95313
#	112056
#	133217
#	148608
#	167782
#	192338
#	210429
#
# Disc length: 3116 seconds
# Revision: 1
# Processed by: cddbd v1.5.2PL0 Copyright (c) Steve Scherf et al.
# Submitted via: dBpowerAMP V12.0
#
DISCID=a60c2a0c
DTITLE=Grady Champion - One of a Kind
DYEAR=2016
DGENRE=Blues
TTITLE0=Bump and Grind
TTITLE1=Heels and Hips
TTITLE2=HouseParty
TTITLE3=Life Support
TTITLE4=Leave Here Running
TTITLE5=Move SOmething
TTITLE6=One of a Kind
TTITLE7=Stone in My Path
TTITLE8=Thin Line
TTITLE9=What a Woman
TTITLE10=When I'm Gone
TTITLE11=GC Boogie
EXTD=
EXTT0=
EXTT1=
EXTT2=
EXTT3=
EXTT4=
EXTT5=
EXTT6=
EXTT7=
EXTT8=
EXTT9=
EXTT10=
EXTT11=
PLAYORDER=
